<svg width="15" height="13" viewBox="0 0 15 13" fill="none" xmlns="http://www.w3.org/2000/svg">
<path d="M7.02737 0.369035C7.18242 -0.0800795 7.81758 -0.080079 7.97263 0.369035L9.29208 4.19103C9.36168 4.39261 9.55146 4.52786 9.76471 4.52786H13.967C14.4586 4.52786 14.6551 5.16307 14.2492 5.4406L10.9027 7.72895C10.7167 7.85611 10.6388 8.09191 10.7123 8.30485L12.0027 12.0426C12.1599 12.498 11.6455 12.8904 11.2478 12.6185L7.78223 10.2487C7.61207 10.1324 7.38793 10.1324 7.21777 10.2487L3.7522 12.6185C3.35453 12.8904 2.84013 12.498 2.99734 12.0426L4.28771 8.30485C4.36123 8.09191 4.28326 7.85611 4.09731 7.72895L0.750804 5.4406C0.34495 5.16307 0.541363 4.52786 1.03303 4.52786H5.23529C5.44854 4.52786 5.63833 4.39261 5.70792 4.19103L7.02737 0.369035Z" fill="#E5C931"/>
</svg>
