<svg width="123" height="151" viewBox="0 0 123 151" fill="none" xmlns="http://www.w3.org/2000/svg">
<path d="M61.4995 146C61.4995 146 117.999 117.8 117.999 75.5V26.15L61.4995 5L5 26.15V75.5C5 117.8 61.4995 146 61.4995 146Z" fill="url(#paint0_radial_118_937)" stroke="url(#paint1_linear_118_937)" stroke-width="10" stroke-linecap="round" stroke-linejoin="round"/>
<path d="M47.9996 65V53.8889C47.9996 50.2053 49.4747 46.6726 52.1003 44.068C54.7259 41.4633 58.2869 40 62.0001 40C65.7133 40 69.2743 41.4633 71.8999 44.068C74.5256 46.6726 76.0006 50.2053 76.0006 53.8889V65M42.5554 65H81.4432C84.5114 65 86.9987 67.5235 86.9987 70.6364V90.3636C86.9987 93.4765 84.5114 96 81.4432 96H42.5554C39.4872 96 37 93.4765 37 90.3636V70.6364C37 67.5235 39.4872 65 42.5554 65Z" stroke="url(#paint2_linear_118_937)" stroke-width="8" stroke-linecap="round" stroke-linejoin="round"/>
<defs>
<radialGradient id="paint0_radial_118_937" cx="0" cy="0" r="1" gradientUnits="userSpaceOnUse" gradientTransform="translate(61.4995 75.5) rotate(90) scale(70.5 56.4995)">
<stop stop-color="#600F67"/>
<stop offset="0.915" stop-color="#271530"/>
</radialGradient>
<linearGradient id="paint1_linear_118_937" x1="61.4995" y1="5" x2="61.4995" y2="146" gradientUnits="userSpaceOnUse">
<stop stop-color="#CD64CF"/>
<stop offset="1" stop-color="#CB397A" stop-opacity="0.74"/>
</linearGradient>
<linearGradient id="paint2_linear_118_937" x1="61.9993" y1="40" x2="61.9993" y2="96" gradientUnits="userSpaceOnUse">
<stop stop-color="#C357B5"/>
<stop offset="1" stop-color="#B1418A"/>
</linearGradient>
</defs>
</svg>
